name Walk7.mot
datacolumns 19
datarows 17
range 1.58300000 1.59900000
endheader

                time	   L_ground_force_vx	   L_ground_force_vy	   L_ground_force_vz	   L_ground_force_px	   L_ground_force_py	   L_ground_force_pz	   R_ground_force_vx	   R_ground_force_vy	   R_ground_force_vz	   R_ground_force_px	   R_ground_force_py	   R_ground_force_pz	   L_ground_torque_x	   L_ground_torque_y	   L_ground_torque_z	   R_ground_torque_x	   R_ground_torque_y	   R_ground_torque_z	
          1.58300000	          0.00000000	          0.00000000	          0.00000000	          0.00000000	          0.00000000	          0.00000000	          6.26938295	        646.49188461	         37.52197399	         -0.28746642	          0.00000000	         -0.03954583	          0.00000000	          0.00000000	          0.00000000	          0.00000000	          0.28521151	          0.00000000	
          1.58400000	          0.00000000	          0.00000000	          0.00000000	          0.00000000	          0.00000000	          0.00000000	          6.25763138	        647.15530040	         37.65148222	         -0.28683436	          0.00000000	         -0.03954129	          0.00000000	          0.00000000	          0.00000000	          0.00000000	          0.27905202	          0.00000000	
          1.58500000	          0.00000000	          0.00000000	          0.00000000	          0.00000000	          0.00000000	          0.00000000	          6.26599195	        647.74653037	         37.71614753	         -0.28618135	          0.00000000	         -0.03953730	          0.00000000	          0.00000000	          0.00000000	          0.00000000	          0.27068360	          0.00000000	
          1.58600000	          0.00000000	          0.00000000	          0.00000000	          0.00000000	          0.00000000	          0.00000000	          6.30545830	        648.26919920	         37.69352914	         -0.28547649	          0.00000000	         -0.03956205	          0.00000000	          0.00000000	          0.00000000	          0.00000000	          0.26932586	          0.00000000	
          1.58700000	          0.00000000	          0.00000000	          0.00000000	          0.00000000	          0.00000000	          0.00000000	          6.38511209	        648.78753185	         37.59213749	         -0.28471535	          0.00000000	         -0.03964812	          0.00000000	          0.00000000	          0.00000000	          0.00000000	          0.28373204	          0.00000000	
          1.58800000	          0.00000000	          0.00000000	          0.00000000	          0.00000000	          0.00000000	          0.00000000	          6.49801476	        649.36162609	         37.45826105	         -0.28393302	          0.00000000	         -0.03981237	          0.00000000	          0.00000000	          0.00000000	          0.00000000	          0.30872011	          0.00000000	
          1.58900000	          0.00000000	          0.00000000	          0.00000000	          0.00000000	          0.00000000	          0.00000000	          6.62091859	        650.02045399	         37.33998080	         -0.28318382	          0.00000000	         -0.04003622	          0.00000000	          0.00000000	          0.00000000	          0.00000000	          0.32906083	          0.00000000	
          1.59000000	          0.00000000	          0.00000000	          0.00000000	          0.00000000	          0.00000000	          0.00000000	          6.73221952	        650.77134758	         37.25541034	         -0.28249309	          0.00000000	         -0.04027103	          0.00000000	          0.00000000	          0.00000000	          0.00000000	          0.33733697	          0.00000000	
          1.59100000	          0.00000000	          0.00000000	          0.00000000	          0.00000000	          0.00000000	          0.00000000	          6.82618798	        651.59644940	         37.20209183	         -0.28183775	          0.00000000	         -0.04047401	          0.00000000	          0.00000000	          0.00000000	          0.00000000	          0.33804050	          0.00000000	
          1.59200000	          0.00000000	          0.00000000	          0.00000000	          0.00000000	          0.00000000	          0.00000000	          6.90789855	        652.47000578	         37.17571631	         -0.28118431	          0.00000000	         -0.04062961	          0.00000000	          0.00000000	          0.00000000	          0.00000000	          0.33273724	          0.00000000	
          1.59300000	          0.00000000	          0.00000000	          0.00000000	          0.00000000	          0.00000000	          0.00000000	          6.98618363	        653.37634010	         37.16690010	         -0.28051978	          0.00000000	         -0.04073447	          0.00000000	          0.00000000	          0.00000000	          0.00000000	          0.31484544	          0.00000000	
          1.59400000	          0.00000000	          0.00000000	          0.00000000	          0.00000000	          0.00000000	          0.00000000	          7.07884460	        654.30009232	         37.15141420	         -0.27984491	          0.00000000	         -0.04078579	          0.00000000	          0.00000000	          0.00000000	          0.00000000	          0.28251332	          0.00000000	
          1.59500000	          0.00000000	          0.00000000	          0.00000000	          0.00000000	          0.00000000	          0.00000000	          7.20724914	        655.23418204	         37.10105199	         -0.27916459	          0.00000000	         -0.04078904	          0.00000000	          0.00000000	          0.00000000	          0.00000000	          0.24671292	          0.00000000	
          1.59600000	          0.00000000	          0.00000000	          0.00000000	          0.00000000	          0.00000000	          0.00000000	          7.37402469	        656.17612639	         37.00813410	         -0.27847556	          0.00000000	         -0.04075580	          0.00000000	          0.00000000	          0.00000000	          0.00000000	          0.22438382	          0.00000000	
          1.59700000	          0.00000000	          0.00000000	          0.00000000	          0.00000000	          0.00000000	          0.00000000	          7.56103504	        657.10556887	         36.89192825	         -0.27776366	          0.00000000	         -0.04069587	          0.00000000	          0.00000000	          0.00000000	          0.00000000	          0.22673632	          0.00000000	
          1.59800000	          0.00000000	          0.00000000	          0.00000000	          0.00000000	          0.00000000	          0.00000000	          7.74962182	        658.01079898	         36.78283834	         -0.27703201	          0.00000000	         -0.04063322	          0.00000000	          0.00000000	          0.00000000	          0.00000000	          0.25251895	          0.00000000	
          1.59900000	          0.00000000	          0.00000000	          0.00000000	          0.00000000	          0.00000000	          0.00000000	          7.93097634	        658.91671349	         36.70209390	         -0.27631690	          0.00000000	         -0.04061367	          0.00000000	          0.00000000	          0.00000000	          0.00000000	          0.28938308	          0.00000000	
